<svg xmlns="http://www.w3.org/2000/svg" viewBox="0 0 374.93 724.9" class="animate-svg"><defs><style>.animate-svg path{-webkit-animation:draw ease-in-out forwards;animation:draw ease-in-out forwards;stroke:#000}.animate-svg{-webkit-animation:fillopacity 3 ease-in-out forwards;animation:fillopacity 3s ease-in-out forwards}@-webkit-keyframes draw{100%{stroke-dashoffset:0}}@keyframes draw{100%{stroke-dashoffset:0}}@-webkit-keyframes fillopacity{0%,70%{fill-opacity:0;stroke-width:0.5%}100%{fill-opacity:1;stroke-width:0}}@keyframes fillopacity{0%,70%{fill-opacity:0;stroke-width:0.5%}100%{fill-opacity:1;stroke-width:0}}.cls-1{fill:#4c2a1a;}.cls-2{fill:#57433a;}.cls-3{fill:#50864d;}.cls-4{fill:#e70000;}.cls-5{fill:#ff6f00;}.cls-6{fill:#ff1a00;}.cls-7{fill:#ff9600;}.cls-8{fill:#ff6226;}.cls-9{fill:#ff8a44;}.cls-10{fill:#ffad5b;}.cls-11{fill:#4c1000;}.cls-12{fill:#fff;}</style></defs><title>Asset 15</title><g id="Layer_2" data-name="Layer 2"><g id="Logo4"><path class="cls-1" d="M175.14,256.3l1.67,13-18.25-22.34C148,280,144.76,314.24,152.9,348.35c.5,2.09,8,16.18,10.47,17.8-5.14.07-7.3-6.24-6.41-3.6a174.34,174.34,0,0,0,10,23.79q13.78-24.63,27.83-50.37C187.12,309.71,182,282.5,175.14,256.3Z" style="stroke-dasharray: 339.873; stroke-dashoffset: 339.873; animation-delay: 0s; animation-duration: 0.7633s;"></path><path class="cls-2" d="M203.84,158.65q-7.16,10.32-13.7,21a347.56,347.56,0,0,0-20,37.59l3.85,29.8,1.2,9.27c6.87,26.2,12,53.41,19.62,79.67q4.05-7.39,8.11-14.89c-8.38-45.95-2.19-92.61-2-139A96.21,96.21,0,0,1,203.84,158.65Z" style="stroke-dasharray: 369.062; stroke-dashoffset: 369.062; animation-delay: 0.0416667s; animation-duration: 0.826994s;"></path><path class="cls-3" d="M203.84,158.65a96.21,96.21,0,0,0-2.93,23.45c-.23,46.37-6.42,93,2,139q11.24-20.71,22.6-42c-1.69-58-3.57-118.82,21.22-172.69a28.76,28.76,0,0,1-3.27,2.21c-8,9-15.9,18.48-23.5,28.24-1,1.34-4.45,25.78-4.73,33.44-2.29-2.29-.77-26.26-1.94-24.67Q208.44,152,203.84,158.65Z" style="stroke-dasharray: 502.069; stroke-dashoffset: 502.069; animation-delay: 0.0833333s; animation-duration: 1.11854s;"></path><path class="cls-4" d="M243.42,108.58a28.76,28.76,0,0,0,3.27-2.21c.46-1,.92-2,1.41-3Q245.75,105.93,243.42,108.58Z" style="stroke-dasharray: 14.2683; stroke-dashoffset: 14.2683; animation-delay: 0.125s; animation-duration: 0.300195s;"></path><path class="cls-5" d="M250.41,101.62c0-.28,0-.56,0-.84-.77.84-1.54,1.71-2.3,2.56-.49,1-.95,2-1.41,3A11.21,11.21,0,0,0,250.41,101.62Z" style="stroke-dasharray: 13.6741; stroke-dashoffset: 13.6741; animation-delay: 0.166667s; animation-duration: 0.310552s;"></path><path class="cls-6" d="M265.53,202.87c-7.63-33.25-15-66.56-15.12-101.25a11.21,11.21,0,0,1-3.72,4.75c-24.79,53.87-22.91,114.71-21.22,172.69Q245.39,241.74,265.53,202.87Z" style="stroke-dasharray: 370.432; stroke-dashoffset: 370.432; animation-delay: 0.208333s; animation-duration: 0.829986s;"></path><path class="cls-7" d="M250.4,100.78c0,.28,0,.56,0,.84a8.13,8.13,0,0,0,.34-1.22Z" style="stroke-dasharray: 2.61767; stroke-dashoffset: 2.61767; animation-delay: 0.25s; animation-duration: 1.47s;"></path><path class="cls-8" d="M287.06,144.8l-36.25-44.47-.06.07a8.13,8.13,0,0,1-.34,1.22c.14,34.69,7.49,68,15.12,101.25q11.55-22.31,23.14-45Z" style="stroke-dasharray: 225.099; stroke-dashoffset: 225.099; animation-delay: 0.291667s; animation-duration: 0.515095s;"></path><path class="cls-9" d="M278,72.23l9.41,73-.34-.43,1.61,13q11.93-23.4,23.84-47.19c1.41-25.53-1.85-51.85,6.73-76.08C306.52,45.42,292.45,58.09,278,72.23Z" style="stroke-dasharray: 272.742; stroke-dashoffset: 272.742; animation-delay: 0.333333s; animation-duration: 0.617539s;"></path><path class="cls-10" d="M366.82.09a9.07,9.07,0,0,0-6.7,1.7c-9.81,7.33-24.17,18.5-40.88,32.77-8.58,24.23-5.32,50.55-6.73,76.08l6.27-12.52Q343.47,48.61,366.82.09Z" style="stroke-dasharray: 259.393; stroke-dashoffset: 259.393; animation-delay: 0.375s; animation-duration: 0.588725s;"></path><polygon class="cls-11" points="124.67 416.12 157.47 432.38 165.89 417.56 132.09 400.79 124.67 416.12"></polygon><path class="cls-1" d="M192.68,399.37a167.67,167.67,0,0,0,66.73-28.93l-34.14-9.12,4.3-1.31c-13.19-.75-26.65-.52-39.52,3.59q-9.45,17.13-18.78,33.77C178.54,395.74,185.76,395.87,192.68,399.37Z" style="stroke-dasharray: 213.657; stroke-dashoffset: 213.657; animation-delay: 0.416667s; animation-duration: 0.490689s;"></path><path class="cls-11" d="M192.68,399.37c-6.92-3.5-14.14-3.63-21.41-2-19.93,35.52-39.37,69.24-58.08,100.72l-36.8,69.72,46.24-36.12,47.74-93.55,18.56,8.93,7.38-15.27L178.16,423l1.67-3.25.41,0,4.62-9.77,2.81-5.49-.19-.07,2.11-4.44C190.63,399.78,191.65,399.57,192.68,399.37Z" style="stroke-dasharray: 467.8; stroke-dashoffset: 467.8; animation-delay: 0.458333s; animation-duration: 1.04327s;"></path><path class="cls-2" d="M212.16,323.17Q201,343.69,190.05,363.6c12.87-4.11,26.33-4.34,39.52-3.59l61.24-18.51c18.9-21.76,33.61-47.83,45.06-75.8C304.82,302.09,262.72,327.4,212.16,323.17Z" style="stroke-dasharray: 380.451; stroke-dashoffset: 380.451; animation-delay: 0.5s; animation-duration: 0.851882s;"></path><path class="cls-3" d="M335.87,265.7c1.73-4.22,3.39-8.5,5-12.8l-41.74-.56.6-.36c-17.28,3.67-34.34,5.37-52.89,10.45a5.41,5.41,0,0,0-2.6.9q-16.11,30.46-32.05,59.84C262.72,327.4,304.82,302.09,335.87,265.7Z" style="stroke-dasharray: 322.663; stroke-dashoffset: 322.663; animation-delay: 0.541667s; animation-duration: 0.725821s;"></path><path class="cls-10" d="M374.63,8.82a9.31,9.31,0,0,0-.52-2.74q-21.19,44-43.56,88.94c16.68-.52,30.32-9.26,43.17-19.39C375.23,47.21,375.05,23.64,374.63,8.82Z" style="stroke-dasharray: 216.856; stroke-dashoffset: 216.856; animation-delay: 0.583333s; animation-duration: 0.497503s;"></path><path class="cls-9" d="M330.55,95c-1.2,2.4-2.38,4.79-3.57,7.19q-14.36,28.76-28.74,57c34-7.73,59.69-34.29,74.27-65,.48-6.38.89-12.59,1.21-18.57C360.87,85.76,347.23,94.5,330.55,95Z" style="stroke-dasharray: 240.792; stroke-dashoffset: 240.792; animation-delay: 0.625s; animation-duration: 0.548708s;"></path><path class="cls-6" d="M363.08,169c.47-2.55-9.37,7.91-12.17,4.44,4.8-2.53,13.93-14.59,14.14-15.85.09-.55.18-1.09.26-1.64q1.23-7.63,2.26-15.14c-14.92,28-46.8,45-78.27,35.92q-12.66,24.72-25.3,48.93C304,220.77,346.2,203.78,363.08,169Z" style="stroke-dasharray: 319.716; stroke-dashoffset: 319.716; animation-delay: 0.666667s; animation-duration: 0.719411s;"></path><path class="cls-10" d="M264,225.65q-9.92,19-19.79,37.68a5.41,5.41,0,0,1,2.6-.9c18.55-5.08,35.61-6.78,52.89-10.45l51.48-31c4.89-17.28,8.79-34.76,11.9-52C346.2,203.78,304,220.77,264,225.65Z" style="stroke-dasharray: 331.597; stroke-dashoffset: 331.597; animation-delay: 0.708333s; animation-duration: 0.74527s;"></path><path class="cls-8" d="M367.57,140.8c.72-5.25,1.38-10.45,2-15.57-4.31-.8-8.64-2-13-3.2,4.32,1.21,8.65,2.4,13,3.2,1.23-10.69,2.21-21.08,3-31-14.58,30.74-40.3,57.3-74.27,65q-4.47,8.78-8.94,17.49C320.77,185.78,352.65,168.8,367.57,140.8Z" style="stroke-dasharray: 288.496; stroke-dashoffset: 288.496; animation-delay: 0.75s; animation-duration: 0.651629s;"></path><path class="cls-3" d="M222.35,705.46a11.14,11.14,0,0,1-10.14,6.48H41.74a11.14,11.14,0,0,1-10.14-6.48c-7.66-16.68-27.38-61.79-31-91.6A35.93,35.93,0,0,0,.1,622.6c2.15,29.58,23.47,78.34,31.5,95.81a11.13,11.13,0,0,0,10.14,6.49H212.21a11.13,11.13,0,0,0,10.14-6.49c8-17.47,29.35-66.23,31.51-95.81a35.43,35.43,0,0,0-.46-8.74C249.74,643.67,230,688.78,222.35,705.46Z" style="stroke-dasharray: 805.924; stroke-dashoffset: 805.924; animation-delay: 0.791667s; animation-duration: 1.78799s;"></path><path class="cls-12" d="M203.45,572.61s39.65,17.19,44.09,40.1c0,0,0,5.24-1.74,7.73C245.8,620.44,236.09,596.52,203.45,572.61Z" style="stroke-dasharray: 134.01; stroke-dashoffset: 134.01; animation-delay: 0.833333s; animation-duration: 0.32512s;"></path><path class="cls-2" d="M204,568.79V555.17a9,9,0,0,0-9-9h-5.65v-14h3.2a4.36,4.36,0,0,0,0-8.72h-3.2v-6h3.2a4.36,4.36,0,0,0,0-8.72h-3.2v-5h2.7a4.73,4.73,0,0,0,0-9.46h-2.7V481.1a4.65,4.65,0,0,0-4.65-4.65H69.18a4.65,4.65,0,0,0-4.65,4.65v13.29H62.21a4.73,4.73,0,1,0,0,9.46h2.32v5H61.34a4.36,4.36,0,0,0,0,8.72h3.19v6H61.34a4.36,4.36,0,1,0,0,8.72h3.19v14H58.89a9,9,0,0,0-9,9v13.62S-2.56,586.06.1,622.6c2.15,29.58,23.47,78.34,31.5,95.81a11.13,11.13,0,0,0,10.14,6.49H212.21a11.13,11.13,0,0,0,10.14-6.49c8-17.47,29.35-66.23,31.51-95.81C256.51,586.06,204,568.79,204,568.79Z" style="stroke-dasharray: 949.085; stroke-dashoffset: 949.085; animation-delay: 0.875s; animation-duration: 2.10404s;"></path><path class="cls-2" d="M204,568.79V555.17a9,9,0,0,0-9-9h-5.65v-14h3.2a4.36,4.36,0,0,0,0-8.72h-3.2v-6h3.2a4.36,4.36,0,0,0,0-8.72h-3.2v-5h2.7a4.73,4.73,0,0,0,0-9.46h-2.7V481.1a4.65,4.65,0,0,0-4.65-4.65H69.18a4.65,4.65,0,0,0-4.65,4.65v13.29H62.21a4.73,4.73,0,1,0,0,9.46h2.32v5H61.34a4.36,4.36,0,0,0,0,8.72h3.19v6H61.34a4.36,4.36,0,1,0,0,8.72h3.19v14H58.89a9,9,0,0,0-9,9v13.62S-2.56,586.06.1,622.6c2.15,29.58,23.47,78.34,31.5,95.81a11.13,11.13,0,0,0,10.14,6.49H212.21a11.13,11.13,0,0,0,10.14-6.49c8-17.47,29.35-66.23,31.51-95.81C256.51,586.06,204,568.79,204,568.79Z" style="stroke-dasharray: 949.085; stroke-dashoffset: 949.085; animation-delay: 0.916667s; animation-duration: 2.10404s;"></path><path class="cls-3" d="M218.19,699.81a3.28,3.28,0,0,1-3,1.84H38.77a3.27,3.27,0,0,1-3-1.85c-4.9-10.3-17.69-38.17-25.55-63.78,6.15,28.73,22.93,66.65,28.63,79.06a3.16,3.16,0,0,0,2.9,1.85H212.21a3.15,3.15,0,0,0,2.9-1.85c5.71-12.41,22.48-50.33,28.63-79.06C235.88,661.63,223.09,689.51,218.19,699.81Z" style="stroke-dasharray: 667.58; stroke-dashoffset: 667.58; animation-delay: 0.958333s; animation-duration: 1.48287s;"></path><rect class="cls-3" x="67.84" y="600.67" width="121.36" height="77.32"></rect></g></g></svg>